<svg width="87" height="102" viewBox="0 0 87 102" fill="none" xmlns="http://www.w3.org/2000/svg">
<g filter="url(#filter0_bdi_7_525)">
<path d="M14.8333 29.5001C14.8333 21.584 21.2505 15.1667 29.1666 15.1667H43.4999H50.8932C53.0202 15.1667 55.0372 16.1115 56.3988 17.7454L70.5055 34.6735C71.5788 35.9614 72.1666 37.5849 72.1666 39.2614V51.0001V72.5001C72.1666 80.4162 65.7493 86.8334 57.8333 86.8334H29.1666C21.2505 86.8334 14.8333 80.4162 14.8333 72.5001V29.5001Z" fill="url(#paint0_linear_7_525)" shape-rendering="crispEdges"/>
<path d="M15.2812 29.5001C15.2812 21.8314 21.4979 15.6147 29.1666 15.6147H43.4999H50.8932C52.8872 15.6147 54.7782 16.5004 56.0547 18.0322L70.1614 34.9602C71.1676 36.1677 71.7187 37.6897 71.7187 39.2614V51.0001V72.5001C71.7187 80.1688 65.502 86.3855 57.8333 86.3855H29.1666C21.4979 86.3855 15.2812 80.1688 15.2812 72.5001V29.5001Z" stroke="url(#paint1_linear_7_525)" stroke-opacity="0.7" stroke-width="0.895833" shape-rendering="crispEdges"/>
</g>
<path fill-rule="evenodd" clip-rule="evenodd" d="M54.25 17.0366V29.5001C54.25 33.4581 57.4586 36.6668 61.4167 36.6668H70.7089C70.4782 36.1593 70.1794 35.6813 69.8174 35.247L55.7107 18.319C55.2887 17.8125 54.7947 17.3818 54.25 17.0366Z" fill="#3B68FF"/>
<g filter="url(#filter1_d_7_525)">
<path d="M29.1667 51H57.8334" stroke="#3B68FF" stroke-width="5.375" stroke-linecap="round"/>
</g>
<g filter="url(#filter2_d_7_525)">
<path d="M29.1667 68.9167H43.5001" stroke="#3B68FF" stroke-width="5.375" stroke-linecap="round"/>
</g>
<defs>
<filter id="filter0_bdi_7_525" x="0.499919" y="0.833415" width="85.9999" height="100.333" filterUnits="userSpaceOnUse" color-interpolation-filters="sRGB">
<feFlood flood-opacity="0" result="BackgroundImageFix"/>
<feGaussianBlur in="BackgroundImageFix" stdDeviation="3.58333"/>
<feComposite in2="SourceAlpha" operator="in" result="effect1_backgroundBlur_7_525"/>
<feColorMatrix in="SourceAlpha" type="matrix" values="0 0 0 0 0 0 0 0 0 0 0 0 0 0 0 0 0 0 127 0" result="hardAlpha"/>
<feOffset/>
<feGaussianBlur stdDeviation="7.16667"/>
<feComposite in2="hardAlpha" operator="out"/>
<feColorMatrix type="matrix" values="0 0 0 0 0.231373 0 0 0 0 0.407843 0 0 0 0 1 0 0 0 0.1 0"/>
<feBlend mode="normal" in2="effect1_backgroundBlur_7_525" result="effect2_dropShadow_7_525"/>
<feBlend mode="normal" in="SourceGraphic" in2="effect2_dropShadow_7_525" result="shape"/>
<feColorMatrix in="SourceAlpha" type="matrix" values="0 0 0 0 0 0 0 0 0 0 0 0 0 0 0 0 0 0 127 0" result="hardAlpha"/>
<feOffset/>
<feGaussianBlur stdDeviation="5.375"/>
<feComposite in2="hardAlpha" operator="arithmetic" k2="-1" k3="1"/>
<feColorMatrix type="matrix" values="0 0 0 0 0.231373 0 0 0 0 0.407843 0 0 0 0 1 0 0 0 0.38 0"/>
<feBlend mode="normal" in2="shape" result="effect3_innerShadow_7_525"/>
</filter>
<filter id="filter1_d_7_525" x="19.3126" y="41.1458" width="48.3751" height="19.7083" filterUnits="userSpaceOnUse" color-interpolation-filters="sRGB">
<feFlood flood-opacity="0" result="BackgroundImageFix"/>
<feColorMatrix in="SourceAlpha" type="matrix" values="0 0 0 0 0 0 0 0 0 0 0 0 0 0 0 0 0 0 127 0" result="hardAlpha"/>
<feOffset/>
<feGaussianBlur stdDeviation="3.58333"/>
<feComposite in2="hardAlpha" operator="out"/>
<feColorMatrix type="matrix" values="0 0 0 0 0.231373 0 0 0 0 0.407843 0 0 0 0 1 0 0 0 0.35 0"/>
<feBlend mode="normal" in2="BackgroundImageFix" result="effect1_dropShadow_7_525"/>
<feBlend mode="normal" in="SourceGraphic" in2="effect1_dropShadow_7_525" result="shape"/>
</filter>
<filter id="filter2_d_7_525" x="19.3126" y="59.0626" width="34.0416" height="19.7083" filterUnits="userSpaceOnUse" color-interpolation-filters="sRGB">
<feFlood flood-opacity="0" result="BackgroundImageFix"/>
<feColorMatrix in="SourceAlpha" type="matrix" values="0 0 0 0 0 0 0 0 0 0 0 0 0 0 0 0 0 0 127 0" result="hardAlpha"/>
<feOffset/>
<feGaussianBlur stdDeviation="3.58333"/>
<feComposite in2="hardAlpha" operator="out"/>
<feColorMatrix type="matrix" values="0 0 0 0 0.231373 0 0 0 0 0.407843 0 0 0 0 1 0 0 0 0.35 0"/>
<feBlend mode="normal" in2="BackgroundImageFix" result="effect1_dropShadow_7_525"/>
<feBlend mode="normal" in="SourceGraphic" in2="effect1_dropShadow_7_525" result="shape"/>
</filter>
<linearGradient id="paint0_linear_7_525" x1="-3.80008" y1="-13.4999" x2="122.394" y2="76.5412" gradientUnits="userSpaceOnUse">
<stop stop-color="#344EA6" stop-opacity="0.26"/>
<stop offset="0.505208" stop-color="#587EFF" stop-opacity="0.12"/>
<stop offset="1" stop-color="#829EFF" stop-opacity="0.04"/>
</linearGradient>
<linearGradient id="paint1_linear_7_525" x1="16.2666" y1="25.9167" x2="75.4582" y2="66.5053" gradientUnits="userSpaceOnUse">
<stop stop-color="white" stop-opacity="0.15"/>
<stop offset="1" stop-color="white" stop-opacity="0.44"/>
</linearGradient>
</defs>
</svg>
