<svg width="95" height="94" viewBox="0 0 95 94" fill="none" xmlns="http://www.w3.org/2000/svg">
<g filter="url(#filter0_bdi_7_512)">
<path d="M72.8057 76.0321C65.8027 83.0351 47.8685 76.4549 32.7484 61.3349C17.6283 46.2148 11.0482 28.2806 18.0511 21.2776L22.662 16.6667C25.8452 13.4835 31.0903 13.5676 34.3772 16.8546L41.5191 23.9965C44.8061 27.2835 44.8903 32.5286 41.7071 35.7117L40.7167 36.7021C38.9981 38.4207 38.8299 41.1933 40.4269 43.1285C41.9672 44.9951 43.6279 46.8543 45.4284 48.6549C47.2289 50.4554 49.0882 52.116 50.9548 53.6564C52.89 55.2533 55.6625 55.0852 57.3811 53.3665L58.3715 52.3762C61.5547 49.193 66.7998 49.2771 70.0868 52.5641L77.2287 59.706C80.5156 62.993 80.5998 68.2381 77.4166 71.4212L72.8057 76.0321Z" fill="url(#paint0_linear_7_512)" shape-rendering="crispEdges"/>
<path d="M72.489 75.7154C69.1849 79.0195 63.1892 79.206 55.9752 76.5591C48.8001 73.9265 40.5898 68.5429 33.0651 61.0181C25.5404 53.4934 20.1567 45.2832 17.5241 38.108C14.8773 30.8941 15.0638 24.8984 18.3678 21.5943L22.9787 16.9834C25.9775 13.9846 30.9388 14.0496 34.0605 17.1713L41.2024 24.3132C44.3241 27.4349 44.3891 32.3963 41.3904 35.395L40.4 36.3854C38.5193 38.2661 38.3365 41.299 40.0814 43.4135C41.6293 45.2894 43.2995 47.1595 45.1117 48.9716C46.9238 50.7837 48.7939 52.4539 50.6697 54.0019C52.7842 55.7467 55.8172 55.564 57.6979 53.6833L58.6883 52.6929C61.687 49.6941 66.6483 49.7591 69.77 52.8808L76.9119 60.0227C80.0336 63.1444 80.0986 68.1058 77.0999 71.1045L72.489 75.7154Z" stroke="url(#paint1_linear_7_512)" stroke-opacity="0.7" stroke-width="0.895833" shape-rendering="crispEdges"/>
</g>
<g filter="url(#filter1_d_7_512)">
<path d="M67.6615 34.9398C66.7872 32.8071 65.4842 30.8089 63.7525 29.0772C62.1186 27.4433 60.2474 26.191 58.2499 25.3204" stroke="#3B68FF" stroke-width="5.375" stroke-linecap="round"/>
</g>
<g filter="url(#filter2_d_7_512)">
<path d="M58.2496 13.1271C63.0321 14.8597 67.5192 17.643 71.3533 21.4771C75.2837 25.4075 78.1098 30.024 79.8318 34.9414" stroke="#3B68FF" stroke-width="5.375" stroke-linecap="round"/>
</g>
<defs>
<filter id="filter0_bdi_7_512" x="0.916667" y="-8.10623e-05" width="93.1667" height="93.1667" filterUnits="userSpaceOnUse" color-interpolation-filters="sRGB">
<feFlood flood-opacity="0" result="BackgroundImageFix"/>
<feGaussianBlur in="BackgroundImageFix" stdDeviation="3.58333"/>
<feComposite in2="SourceAlpha" operator="in" result="effect1_backgroundBlur_7_512"/>
<feColorMatrix in="SourceAlpha" type="matrix" values="0 0 0 0 0 0 0 0 0 0 0 0 0 0 0 0 0 0 127 0" result="hardAlpha"/>
<feOffset/>
<feGaussianBlur stdDeviation="7.16667"/>
<feComposite in2="hardAlpha" operator="out"/>
<feColorMatrix type="matrix" values="0 0 0 0 0.231373 0 0 0 0 0.407843 0 0 0 0 1 0 0 0 0.1 0"/>
<feBlend mode="normal" in2="effect1_backgroundBlur_7_512" result="effect2_dropShadow_7_512"/>
<feBlend mode="normal" in="SourceGraphic" in2="effect2_dropShadow_7_512" result="shape"/>
<feColorMatrix in="SourceAlpha" type="matrix" values="0 0 0 0 0 0 0 0 0 0 0 0 0 0 0 0 0 0 127 0" result="hardAlpha"/>
<feOffset/>
<feGaussianBlur stdDeviation="5.375"/>
<feComposite in2="hardAlpha" operator="arithmetic" k2="-1" k3="1"/>
<feColorMatrix type="matrix" values="0 0 0 0 0.231373 0 0 0 0 0.407843 0 0 0 0 1 0 0 0 0.38 0"/>
<feBlend mode="normal" in2="shape" result="effect3_innerShadow_7_512"/>
</filter>
<filter id="filter1_d_7_512" x="48.3951" y="15.4657" width="29.1212" height="29.3289" filterUnits="userSpaceOnUse" color-interpolation-filters="sRGB">
<feFlood flood-opacity="0" result="BackgroundImageFix"/>
<feColorMatrix in="SourceAlpha" type="matrix" values="0 0 0 0 0 0 0 0 0 0 0 0 0 0 0 0 0 0 127 0" result="hardAlpha"/>
<feOffset/>
<feGaussianBlur stdDeviation="3.58333"/>
<feComposite in2="hardAlpha" operator="out"/>
<feColorMatrix type="matrix" values="0 0 0 0 0.231373 0 0 0 0 0.407843 0 0 0 0 1 0 0 0 0.35 0"/>
<feBlend mode="normal" in2="BackgroundImageFix" result="effect1_dropShadow_7_512"/>
<feBlend mode="normal" in="SourceGraphic" in2="effect1_dropShadow_7_512" result="shape"/>
</filter>
<filter id="filter2_d_7_512" x="48.3946" y="3.2723" width="41.2921" height="41.524" filterUnits="userSpaceOnUse" color-interpolation-filters="sRGB">
<feFlood flood-opacity="0" result="BackgroundImageFix"/>
<feColorMatrix in="SourceAlpha" type="matrix" values="0 0 0 0 0 0 0 0 0 0 0 0 0 0 0 0 0 0 127 0" result="hardAlpha"/>
<feOffset/>
<feGaussianBlur stdDeviation="3.58333"/>
<feComposite in2="hardAlpha" operator="out"/>
<feColorMatrix type="matrix" values="0 0 0 0 0.231373 0 0 0 0 0.407843 0 0 0 0 1 0 0 0 0.35 0"/>
<feBlend mode="normal" in2="BackgroundImageFix" result="effect1_dropShadow_7_512"/>
<feBlend mode="normal" in="SourceGraphic" in2="effect1_dropShadow_7_512" result="shape"/>
</filter>
<linearGradient id="paint0_linear_7_512" x1="-5.7125" y1="-11.4668" x2="113.612" y2="94.9583" gradientUnits="userSpaceOnUse">
<stop stop-color="#344EA6" stop-opacity="0.26"/>
<stop offset="0.505208" stop-color="#587EFF" stop-opacity="0.12"/>
<stop offset="1" stop-color="#829EFF" stop-opacity="0.04"/>
</linearGradient>
<linearGradient id="paint1_linear_7_512" x1="16.8625" y1="24.0083" x2="73.3" y2="72.3833" gradientUnits="userSpaceOnUse">
<stop stop-color="white" stop-opacity="0.15"/>
<stop offset="1" stop-color="white" stop-opacity="0.44"/>
</linearGradient>
</defs>
</svg>
